<svg width="1696" height="1696" viewBox="0 0 1696 1696" fill="none" xmlns="http://www.w3.org/2000/svg">
<path d="M1404.5 556.5V609.5H1362.47C1327.6 575.315 1281.57 556.5 1232.65 556.5H1219V421.88C1283.9 384.25 1325 314.025 1325 238.5C1325 121.609 1229.89 26.5 1113 26.5C996.109 26.5 901 121.609 901 238.5C901 314.025 942.102 384.25 1007 421.88V556.5H954C924.77 556.5 901 580.27 901 609.5C901 629.349 906.83 647.713 916.37 663.613C877.813 669.098 848 701.985 848 742C848 762.432 855.976 780.902 868.67 795C855.95 809.098 848 827.568 848 848C848 868.432 855.976 886.902 868.67 901C855.95 915.098 848 933.568 848 954C848 974.432 855.976 992.902 868.67 1007C855.95 1021.1 848 1039.57 848 1060C848 1103.83 883.669 1139.5 927.5 1139.5H1007V1274.12C942.102 1311.75 901 1381.98 901 1457.5C901 1574.39 996.109 1669.5 1113 1669.5C1229.89 1669.5 1325 1574.39 1325 1457.5C1325 1381.98 1283.9 1311.75 1219 1274.12V1138.86C1243.94 1137.35 1268.61 1131.1 1290.92 1119.94L1357.75 1086.5H1404.5V1139.5H1669.5V556.5H1404.5ZM1044.9 381.997C989.669 355.709 954 299.37 954 238.5C954 150.811 1025.31 79.5 1113 79.5C1200.69 79.5 1272 150.811 1272 238.5C1272 299.37 1236.33 355.709 1181.1 381.997L1166 389.179V556.5H1060V389.179L1044.9 381.997ZM927.5 715.5H1007H1033.5C1048.1 715.5 1060 727.399 1060 742C1060 756.601 1048.1 768.5 1033.5 768.5H927.5C912.899 768.5 901 756.601 901 742C901 727.399 912.899 715.5 927.5 715.5ZM901 954C901 939.399 912.899 927.5 927.5 927.5H1033.5C1048.1 927.5 1060 939.399 1060 954C1060 968.601 1048.1 980.5 1033.5 980.5H927.5C912.899 980.5 901 968.601 901 954ZM901 848C901 833.399 912.899 821.5 927.5 821.5H1033.5C1048.1 821.5 1060 833.399 1060 848C1060 862.601 1048.1 874.5 1033.5 874.5H927.5C912.899 874.5 901 862.601 901 848ZM901 1060C901 1045.4 912.899 1033.5 927.5 1033.5H1033.5C1048.1 1033.5 1060 1045.4 1060 1060C1060 1074.6 1048.1 1086.5 1033.5 1086.5H927.5C912.899 1086.5 901 1074.6 901 1060ZM1272 1457.5C1272 1545.19 1200.69 1616.5 1113 1616.5C1025.31 1616.5 954 1545.19 954 1457.5C954 1396.63 989.669 1340.29 1044.9 1314L1060 1306.82V1134.62C1090.77 1123.65 1113 1094.5 1113 1060C1113 1039.57 1105.02 1021.1 1092.33 1007C1105.05 992.902 1113 974.432 1113 954C1113 933.568 1105.02 915.098 1092.33 901C1105.05 886.902 1113 868.432 1113 848C1113 827.568 1105.02 809.098 1092.33 795C1105.05 780.902 1113 762.432 1113 742C1113 732.672 1111.09 723.821 1108.12 715.5H1166V1306.82L1181.1 1314C1236.33 1340.29 1272 1396.63 1272 1457.5ZM1345.25 1033.5L1267.26 1072.51C1252.23 1080.01 1235.75 1084.43 1219.03 1085.84V743.723C1246.82 759.755 1278.39 768.5 1311.35 768.5H1351.5V715.5H1311.35C1275.98 715.5 1242.69 701.72 1217.65 676.704L1203.47 662.5H1033.5H1007C977.77 662.5 954 638.73 954 609.5H1232.65C1268.02 609.5 1301.31 623.28 1326.35 648.296L1340.53 662.5H1404.5V1033.5H1345.25ZM1616.5 1086.5H1457.5V609.5H1616.5V1086.5Z" fill="white"/>
<path d="M1113 1351.5C1054.54 1351.5 1007 1399.04 1007 1457.5C1007 1515.96 1054.54 1563.5 1113 1563.5C1171.46 1563.5 1219 1515.96 1219 1457.5C1219 1399.04 1171.46 1351.5 1113 1351.5ZM1113 1510.5C1083.77 1510.5 1060 1486.73 1060 1457.5C1060 1428.27 1083.77 1404.5 1113 1404.5C1142.23 1404.5 1166 1428.27 1166 1457.5C1166 1486.73 1142.23 1510.5 1113 1510.5Z" fill="white"/>
<path d="M1219 238.5C1219 180.041 1171.46 132.5 1113 132.5C1054.54 132.5 1007 180.041 1007 238.5C1007 296.959 1054.54 344.5 1113 344.5C1171.46 344.5 1219 296.959 1219 238.5ZM1060 238.5C1060 209.27 1083.77 185.5 1113 185.5C1142.23 185.5 1166 209.27 1166 238.5C1166 267.73 1142.23 291.5 1113 291.5C1083.77 291.5 1060 267.73 1060 238.5Z" fill="white"/>
<path d="M636 1351.5C577.541 1351.5 530 1399.04 530 1457.5C530 1515.96 577.541 1563.5 636 1563.5C694.459 1563.5 742 1515.96 742 1457.5C742 1399.04 694.459 1351.5 636 1351.5ZM636 1510.5C606.77 1510.5 583 1486.73 583 1457.5C583 1428.27 606.77 1404.5 636 1404.5C665.23 1404.5 689 1428.27 689 1457.5C689 1486.73 665.23 1510.5 636 1510.5Z" fill="white"/>
<path d="M742 1274.12V580.88C806.898 543.25 848 473.025 848 397.5C848 317.868 803.851 251.194 726.895 214.571L689 196.551V383.323L636 418.647L583 383.323V196.551L545.105 214.571C468.149 251.194 424 317.868 424 397.5C424 473.025 465.102 543.25 530 580.88V1274.12C465.102 1311.75 424 1381.98 424 1457.5C424 1574.39 519.109 1669.5 636 1669.5C752.891 1669.5 848 1574.39 848 1457.5C848 1381.98 806.898 1311.75 742 1274.12ZM636 1616.5C548.311 1616.5 477 1545.19 477 1457.5C477 1396.63 512.669 1340.29 567.895 1314L583 1306.82V548.179L567.895 540.998C512.669 514.71 477 458.371 477 397.5C477 343.732 502.785 308.487 530 286.253V411.678L636 482.353L742 411.678V286.253C769.215 308.487 795 343.732 795 397.5C795 458.371 759.331 514.71 704.105 540.998L689 548.179V1306.82L704.105 1314C759.331 1340.29 795 1396.63 795 1457.5C795 1545.19 723.689 1616.5 636 1616.5Z" fill="white"/>
<path d="M397.5 636C397.5 533.71 314.29 450.5 212 450.5C109.71 450.5 26.5 533.71 26.5 636C26.5 696.632 56.604 753.554 106 788.057V1331.92C56.604 1366.45 26.5 1423.37 26.5 1484C26.5 1586.29 109.71 1669.5 212 1669.5C314.29 1669.5 397.5 1586.29 397.5 1484C397.5 1423.37 367.396 1366.45 318 1331.94V788.057C367.396 753.554 397.5 696.632 397.5 636V636ZM278.223 1369.36C319.113 1393.05 344.5 1436.99 344.5 1484C344.5 1557.06 285.06 1616.5 212 1616.5C138.94 1616.5 79.5 1557.06 79.5 1484C79.5 1436.99 104.887 1393.05 145.776 1369.36L159 1361.7V758.297L145.776 750.639C104.887 726.948 79.5 683.011 79.5 636C79.5 562.94 138.94 503.5 212 503.5C285.06 503.5 344.5 562.94 344.5 636C344.5 683.011 319.113 726.948 278.223 750.639L265 758.297V1361.73L278.223 1369.36Z" fill="white"/>
<path d="M291.5 636C291.5 592.169 255.831 556.5 212 556.5C168.169 556.5 132.5 592.169 132.5 636C132.5 679.831 168.169 715.5 212 715.5C255.831 715.5 291.5 679.831 291.5 636ZM212 662.5C197.399 662.5 185.5 650.601 185.5 636C185.5 621.399 197.399 609.5 212 609.5C226.601 609.5 238.5 621.399 238.5 636C238.5 650.601 226.601 662.5 212 662.5Z" fill="white"/>
<path d="M132.5 1484C132.5 1527.83 168.169 1563.5 212 1563.5C255.831 1563.5 291.5 1527.83 291.5 1484C291.5 1440.17 255.831 1404.5 212 1404.5C168.169 1404.5 132.5 1440.17 132.5 1484ZM238.5 1484C238.5 1498.6 226.601 1510.5 212 1510.5C197.399 1510.5 185.5 1498.6 185.5 1484C185.5 1469.4 197.399 1457.5 212 1457.5C226.601 1457.5 238.5 1469.4 238.5 1484Z" fill="white"/>
</svg>
