<svg width="2155" height="1912" viewBox="0 0 2155 1912" fill="none" xmlns="http://www.w3.org/2000/svg">
<path d="M426.382 406.992C431.282 373.076 460.889 347.5 495.153 347.5H729.75V278H495.153C426.556 278 367.446 329.187 357.612 396.984L345.241 482.052L414.011 492.095L426.382 406.992Z" fill="white"/>
<path d="M2154.5 695C2154.5 637.523 2107.73 590.75 2050.25 590.75H1955.31L1930.68 356.813C1917.64 232.616 1813.64 139 1688.82 139H1654.76L1585.26 0H569.274L499.774 139H465.72C340.863 139 236.891 232.616 223.825 356.813L199.187 590.75H104.25C46.7735 590.75 0 637.523 0 695C0 783.786 67.2065 856.414 153.317 866.665L0 1173.3V1320.5C0 1442.99 70.9595 1548.95 173.75 1600.24V1807C173.75 1864.48 220.523 1911.25 278 1911.25H486.5C543.977 1911.25 590.75 1864.48 590.75 1807V1633.25H1563.75V1807C1563.75 1864.48 1610.52 1911.25 1668 1911.25H1876.5C1933.98 1911.25 1980.75 1864.48 1980.75 1807V1600.24C2083.54 1548.95 2154.5 1442.96 2154.5 1320.5V1173.3L2001.18 866.7C2087.29 856.414 2154.5 783.786 2154.5 695V695ZM1876.5 1146.75C1780.69 1146.75 1702.75 1224.69 1702.75 1320.5V1355.25H1543.39L1582.34 1316.3C1615.15 1283.49 1633.25 1239.85 1633.25 1193.42V1007.75H1691.87C1775.41 1007.75 1853.95 975.224 1912.99 916.149L1936.48 892.658L2063.52 1146.75H1876.5ZM2054.84 1216.25L2034.37 1246.93C1989.16 1314.77 1913.47 1355.25 1831.99 1355.25H1772.25V1320.5C1772.25 1263.02 1819.02 1216.25 1876.5 1216.25H2054.84ZM709.386 1355.25L621.295 1267.16C601.592 1247.46 590.75 1221.29 590.75 1193.42V1007.75H1563.75V1193.42C1563.75 1221.29 1552.91 1247.49 1533.2 1267.16L1445.11 1355.25H709.386ZM382.25 1355.25H322.515C240.991 1355.25 165.34 1314.77 120.131 1246.93L99.663 1216.25H278C335.477 1216.25 382.25 1263.02 382.25 1320.5V1355.25ZM278 1146.75H90.9755L218.022 892.658L241.512 916.149C300.553 975.224 379.088 1007.75 462.627 1007.75H521.25V1193.42C521.25 1239.85 539.355 1283.49 572.159 1316.3L611.114 1355.25H451.75V1320.5C451.75 1224.69 373.806 1146.75 278 1146.75V1146.75ZM923.864 729.75C931.787 729.75 938.25 736.213 938.25 744.136C938.25 747.924 936.721 751.643 934.045 754.318L750.114 938.25H674.636L883.136 729.75H923.864ZM576.364 938.25H466.136L917.886 486.5H934.045C955.521 486.5 973 503.979 973 525.455C973 535.706 968.865 545.749 961.602 553.011L576.364 938.25ZM1688.36 729.75C1696.29 729.75 1702.75 736.213 1702.75 744.136C1702.75 747.924 1701.22 751.643 1698.55 754.318L1514.61 938.25H1439.14L1647.64 729.75H1688.36ZM1340.86 938.25H1230.64L1682.39 486.5H1698.55C1720.02 486.5 1737.5 503.979 1737.5 525.455C1737.5 535.706 1733.36 545.749 1726.1 553.011L1340.86 938.25ZM2050.25 660.25C2069.43 660.25 2085 675.818 2085 695C2085 752.477 2038.23 799.25 1980.75 799.25H1977.28L1962.65 660.25H2050.25ZM612.226 69.5H1542.27L1577.02 139H577.476L612.226 69.5ZM292.908 364.076C302.221 275.394 376.516 208.5 465.685 208.5H1688.78C1777.95 208.5 1852.24 275.394 1861.59 364.076L1909.69 821.177L1863.82 867.047C1817.88 912.987 1756.79 938.285 1691.84 938.285H1612.89L1747.68 803.489C1763.28 787.852 1772.25 766.237 1772.25 744.136C1772.25 706.502 1747.2 674.984 1713 664.385L1775.24 602.148C1795.43 581.958 1807 554.019 1807 525.455C1807 465.65 1758.35 417 1698.55 417H1653.61L1132.36 938.25H848.386L983.182 803.455C998.784 787.852 1007.75 766.237 1007.75 744.136C1007.75 706.502 982.695 674.984 948.501 664.385L1010.74 602.148C1030.93 581.958 1042.5 554.019 1042.5 525.455C1042.5 465.65 993.85 417 934.045 417H889.114L381.833 924.28C347.952 912.361 316.816 893.179 290.649 867.047L244.779 821.177L292.908 364.076ZM69.5 695C69.5 675.818 85.068 660.25 104.25 660.25H191.855L177.225 799.25H173.75C116.273 799.25 69.5 752.477 69.5 695ZM69.5 1320.5V1294.96C128.228 1376.24 221.705 1424.75 322.515 1424.75H770.894C767.002 1435.66 764.5 1447.27 764.5 1459.5V1529C764.5 1541.23 767.002 1552.84 770.894 1563.75H312.75C178.65 1563.75 69.5 1454.6 69.5 1320.5V1320.5ZM521.25 1807C521.25 1826.18 505.682 1841.75 486.5 1841.75H278C258.818 1841.75 243.25 1826.18 243.25 1807V1625.19C265.629 1630.3 288.842 1633.25 312.75 1633.25H521.25V1807ZM868.75 1563.75C849.568 1563.75 834 1548.18 834 1529V1459.5C834 1440.32 849.568 1424.75 868.75 1424.75H1285.75C1304.93 1424.75 1320.5 1440.32 1320.5 1459.5V1529C1320.5 1548.18 1304.93 1563.75 1285.75 1563.75H868.75ZM1911.25 1807C1911.25 1826.18 1895.68 1841.75 1876.5 1841.75H1668C1648.82 1841.75 1633.25 1826.18 1633.25 1807V1633.25H1841.75C1865.66 1633.25 1888.87 1630.3 1911.25 1625.19V1807ZM1841.75 1563.75H1383.61C1387.5 1552.84 1390 1541.23 1390 1529V1459.5C1390 1447.27 1387.5 1435.66 1383.61 1424.75H1831.99C1932.8 1424.75 2026.27 1376.24 2085 1294.96V1320.5C2085 1454.6 1975.85 1563.75 1841.75 1563.75Z" fill="white"/>
<path d="M799.25 278H868.75V347.5H799.25V278Z" fill="white"/>
<path d="M938.25 278H1007.75V347.5H938.25V278Z" fill="white"/>
</svg>
