<svg width="1696" height="1696" viewBox="0 0 1696 1696" fill="none" xmlns="http://www.w3.org/2000/svg">
<path d="M848 26.5C395.009 26.5 26.5 395.009 26.5 848C26.5 1300.99 395.009 1669.5 848 1669.5C1300.99 1669.5 1669.5 1300.99 1669.5 848C1669.5 395.009 1300.99 26.5 848 26.5ZM848 1616.5C424.265 1616.5 79.5 1271.73 79.5 848C79.5 424.265 424.265 79.5 848 79.5C1271.73 79.5 1616.5 424.265 1616.5 848C1616.5 1271.73 1271.73 1616.5 848 1616.5Z" fill="white"/>
<path d="M715.5 848C715.5 921.06 774.94 980.5 848 980.5C921.06 980.5 980.5 921.06 980.5 848C980.5 774.94 921.06 715.5 848 715.5C841.375 715.5 834.988 716.507 828.628 717.461L593.255 503.5H503.5V593.255L717.461 828.628C716.507 834.988 715.5 841.375 715.5 848V848ZM927.5 848C927.5 891.831 891.831 927.5 848 927.5C804.169 927.5 768.5 891.831 768.5 848C768.5 804.169 804.169 768.5 848 768.5C891.831 768.5 927.5 804.169 927.5 848ZM556.5 572.745V556.5H572.745L773.244 738.767C759.729 748.042 748.042 759.729 738.767 773.244L556.5 572.745Z" fill="white"/>
<path d="M848 132.5C453.468 132.5 132.5 453.468 132.5 848C132.5 1242.53 453.468 1563.5 848 1563.5C1242.53 1563.5 1563.5 1242.53 1563.5 848C1563.5 453.468 1242.53 132.5 848 132.5ZM848 1510.5C491.575 1510.5 200.155 1227.56 186.163 874.5H291.5V821.5H186.163C188.972 750.665 202.831 682.614 226.257 619.146L323.698 659.532L343.996 610.56L246.741 570.253C275.997 507.183 314.82 449.413 361.46 398.931L435.74 473.211L473.211 435.74L398.931 361.46C449.413 314.82 507.157 275.997 570.253 246.741L610.56 343.996L659.532 323.698L619.146 226.257C682.614 202.831 750.665 188.972 821.5 186.163V291.5H874.5V186.163C945.335 188.972 1013.39 202.831 1076.85 226.257L1036.47 323.698L1085.44 343.996L1125.75 246.741C1188.82 275.997 1246.59 314.82 1297.07 361.46L1222.79 435.74L1260.26 473.211L1334.54 398.931C1381.18 449.413 1420 507.157 1449.26 570.253L1352 610.56L1372.3 659.532L1469.74 619.146C1493.17 682.614 1507.05 750.665 1509.84 821.5H1404.5V874.5H1509.84C1495.85 1227.56 1204.42 1510.5 848 1510.5V1510.5Z" fill="white"/>
<path d="M882.529 1192.5H847.999V1139.5H900.999V1086.5H635.999V1139.5H688.999V1197.38C680.281 1200.48 672.357 1205.06 665.308 1210.84L548.735 1094.26L511.264 1131.74L637.43 1257.9C636.609 1262.49 635.999 1267.18 635.999 1272V1325C635.999 1398.06 695.439 1457.5 768.499 1457.5H964.599C1016.94 1457.5 1064.45 1426.63 1085.68 1378.82L1166 1198.12V1120.31L955.059 1240.86L882.529 1192.5ZM794.999 1139.5V1192.5H741.999V1139.5H794.999ZM1037.26 1357.3C1024.52 1385.98 996.002 1404.5 964.599 1404.5H768.499C724.668 1404.5 688.999 1368.83 688.999 1325V1272C688.999 1257.37 700.871 1245.5 715.499 1245.5H866.47L952.939 1303.14L1098.21 1220.11L1037.26 1357.3Z" fill="white"/>
<path d="M1325 980.5C1281.17 980.5 1245.5 1016.17 1245.5 1060C1245.5 1103.83 1281.17 1139.5 1325 1139.5C1368.83 1139.5 1404.5 1103.83 1404.5 1060C1404.5 1016.17 1368.83 980.5 1325 980.5ZM1325 1086.5C1310.37 1086.5 1298.5 1074.63 1298.5 1060C1298.5 1045.37 1310.37 1033.5 1325 1033.5C1339.63 1033.5 1351.5 1045.37 1351.5 1060C1351.5 1074.63 1339.63 1086.5 1325 1086.5Z" fill="white"/>
<path d="M371 980.5C327.169 980.5 291.5 1016.17 291.5 1060C291.5 1103.83 327.169 1139.5 371 1139.5C414.831 1139.5 450.5 1103.83 450.5 1060C450.5 1016.17 414.831 980.5 371 980.5ZM371 1086.5C356.372 1086.5 344.5 1074.63 344.5 1060C344.5 1045.37 356.372 1033.5 371 1033.5C385.628 1033.5 397.5 1045.37 397.5 1060C397.5 1074.63 385.628 1086.5 371 1086.5Z" fill="white"/>
</svg>
