<svg width="2304" height="2304" viewBox="0 0 2304 2304" fill="none" xmlns="http://www.w3.org/2000/svg">
<path d="M1034.57 1692H1139L1388.23 1152H1235.74L1307.74 900H1052.5L924.84 1368H1107.07L1034.57 1692ZM1019.16 1296L1107.5 972H1212.26L1140.26 1224H1275.77L1154.09 1487.59L1196.93 1296H1019.16Z" fill="white"/>
<path d="M2268 468V396C2268 356.292 2235.71 324 2196 324H2124V288C2124 241.128 2093.8 201.528 2052 186.624V144C2052 84.456 2003.54 36 1944 36H1800C1740.46 36 1692 84.456 1692 144V186.624C1650.2 201.528 1620 241.128 1620 288V324H684V288C684 241.128 653.796 201.528 612 186.624V144C612 84.456 563.544 36 504 36H360C300.456 36 252 84.456 252 144V186.624C210.204 201.528 180 241.128 180 288V324H108C68.292 324 36 356.292 36 396V468C36 507.708 68.292 540 108 540V2052C68.292 2052 36 2084.29 36 2124V2196C36 2235.71 68.292 2268 108 2268H2196C2235.71 2268 2268 2235.71 2268 2196V2124C2268 2084.29 2235.71 2052 2196 2052V540C2235.71 540 2268 507.708 2268 468ZM1800 108H1944C1963.87 108 1980 124.128 1980 144V180H1764V144C1764 124.128 1780.13 108 1800 108ZM1692 288C1692 268.128 1708.13 252 1728 252H2016C2035.87 252 2052 268.128 2052 288V324H1692V288ZM360 108H504C523.872 108 540 124.128 540 144V180H324V144C324 124.128 340.128 108 360 108ZM252 288C252 268.128 268.128 252 288 252H576C595.872 252 612 268.128 612 288V324H252V288ZM108 396H2196L2196.07 468H108V396ZM2196.07 2196H108V2124H2196L2196.07 2196ZM2124 2052H180V540H2124V2052Z" fill="white"/>
<path d="M1692 1260H2052V1332H1692V1260Z" fill="white"/>
<path d="M396 1476H468V1332H612V1260H468V1116H396V1260H252V1332H396V1476Z" fill="white"/>
<path d="M792 1836H1512C1571.54 1836 1620 1787.54 1620 1728V864C1620 804.456 1571.54 756 1512 756H792C732.456 756 684 804.456 684 864V1728C684 1787.54 732.456 1836 792 1836ZM756 864C756 844.128 772.128 828 792 828H1512C1531.87 828 1548 844.128 1548 864V1728C1548 1747.87 1531.87 1764 1512 1764H792C772.128 1764 756 1747.87 756 1728V864Z" fill="white"/>
<path d="M252 1908H324V1980H252V1908Z" fill="white"/>
<path d="M396 1908H468V1980H396V1908Z" fill="white"/>
<path d="M540 1908H612V1980H540V1908Z" fill="white"/>
<path d="M1980 612H2052V684H1980V612Z" fill="white"/>
<path d="M1836 612H1908V684H1836V612Z" fill="white"/>
<path d="M1692 612H1764V684H1692V612Z" fill="white"/>
</svg>
