<svg width="1696" height="1696" viewBox="0 0 1696 1696" fill="none" xmlns="http://www.w3.org/2000/svg">
<path d="M1669.5 848C1669.5 395.009 1300.99 26.5 848 26.5C395.009 26.5 26.5 395.009 26.5 848C26.5 1189.24 238.844 1495.08 556.5 1615.71V1669.5H1139.5V1615.71C1457.16 1495.08 1669.5 1189.24 1669.5 848ZM623.492 1320.2C614.349 1301.92 609.5 1281.43 609.5 1260.98V901C609.5 886.372 621.372 874.5 636 874.5C650.628 874.5 662.5 886.372 662.5 901V1007H715.5V901V821.5C715.5 806.872 727.372 795 742 795C756.628 795 768.5 806.872 768.5 821.5V1007H821.5V821.5V742C821.5 727.372 833.372 715.5 848 715.5C862.628 715.5 874.5 727.372 874.5 742V848V1007H927.5V848C927.5 833.372 939.372 821.5 954 821.5C968.628 821.5 980.5 833.372 980.5 848V1166H1033.5V1125.08C1033.5 1045.35 1098.35 980.5 1178.08 980.5C1186.17 980.5 1192.5 986.727 1192.5 994.677C1192.5 997.486 1191.68 1000.22 1190.11 1002.55L1162.85 1043.46C1148.19 1065.41 1138.76 1090.85 1135.5 1117L1118.43 1253.34C1115.6 1276.16 1106.8 1297.97 1092.97 1316.39L1033.5 1395.68V1457.5H662.5V1398.25L623.492 1320.2ZM1135.37 1348.19C1154.71 1322.4 1167.03 1291.87 1171.03 1259.89L1188.1 1123.57C1190.35 1105.53 1196.87 1087.98 1206.97 1072.85L1220.17 1053.08C1291.4 1040.23 1361.49 1033.5 1428.48 1033.5C1375.64 1198.41 1253.9 1336 1091.4 1406.81L1135.37 1348.19ZM238.5 848C238.5 802.499 243.667 758.191 253.181 715.5H605.79L613.687 706.755C669.549 644.957 754.932 609.5 848 609.5C941.068 609.5 1026.45 644.957 1082.31 706.755L1090.21 715.5H1442.85C1452.33 758.191 1457.5 802.499 1457.5 848C1457.5 893.236 1452.2 937.57 1442.61 980.5H1428.48C1369.28 980.5 1307.85 985.588 1245.42 995.155C1245.42 994.996 1245.5 994.836 1245.5 994.677C1245.5 957.657 1215.24 927.5 1178.08 927.5C1121.06 927.5 1069.59 951.774 1033.5 990.544V848C1033.5 804.169 997.831 768.5 954 768.5C944.672 768.5 935.821 770.408 927.5 773.376V742C927.5 698.169 891.831 662.5 848 662.5C804.169 662.5 768.5 698.169 768.5 742V746.876C760.179 743.908 751.328 742 742 742C698.169 742 662.5 777.669 662.5 821.5V826.376C654.179 823.408 645.328 821.5 636 821.5C592.169 821.5 556.5 857.169 556.5 901V1016.06C455.932 992.61 360.851 980.5 267.518 980.5H253.393C243.8 937.57 238.5 893.236 238.5 848V848ZM267.465 662.5C346.117 416.871 576.587 238.5 848 238.5C1119.41 238.5 1349.88 416.871 1428.54 662.5H1113.45C1047.68 594.978 951.668 556.5 848 556.5C744.332 556.5 648.349 594.978 582.549 662.5H267.465ZM556.5 1070.41V1260.98C556.5 1289.62 563.284 1318.32 576.084 1343.92L608.228 1408.24C443.928 1337.91 320.729 1199.6 267.491 1033.5C360.479 1033.5 455.376 1045.93 556.5 1070.41V1070.41ZM1086.5 1616.5H609.5V1510.5H1086.5V1616.5ZM1139.5 1558.7V1457.5H1107.14C1349.91 1354.26 1510.5 1114.51 1510.5 848C1510.5 482.698 1213.3 185.5 848 185.5C482.698 185.5 185.5 482.698 185.5 848C185.5 1114.51 346.09 1354.26 588.857 1457.5H556.5V1558.7C269.823 1441.1 79.5 1160.46 79.5 848C79.5 424.265 424.265 79.5 848 79.5C1271.73 79.5 1616.5 424.265 1616.5 848C1616.5 1160.46 1426.18 1441.1 1139.5 1558.7V1558.7Z" fill="white"/>
<path d="M344.5 927.5H450.5C479.73 927.5 503.5 903.73 503.5 874.5V821.5C503.5 792.27 479.73 768.5 450.5 768.5H344.5C315.27 768.5 291.5 792.27 291.5 821.5V874.5C291.5 903.73 315.27 927.5 344.5 927.5ZM344.5 821.5H450.5L450.553 874.5H344.5V821.5Z" fill="white"/>
<path d="M1139.5 768.5H1192.5V821.5H1139.5V768.5Z" fill="white"/>
<path d="M1245.5 768.5H1298.5V821.5H1245.5V768.5Z" fill="white"/>
<path d="M1351.5 768.5H1404.5V821.5H1351.5V768.5Z" fill="white"/>
<path d="M1351.5 874.5H1404.5V927.5H1351.5V874.5Z" fill="white"/>
<path d="M1245.5 874.5H1298.5V927.5H1245.5V874.5Z" fill="white"/>
<path d="M350.912 597.547L398.215 621.45C406.907 604.225 416.738 587.265 427.418 571.074L383.163 541.924C371.397 559.785 360.505 578.52 350.912 597.547Z" fill="white"/>
<path d="M848 291.5C685.184 291.5 531.034 362.494 425.087 486.275L465.367 520.751C561.217 408.736 700.687 344.5 848 344.5V291.5Z" fill="white"/>
</svg>
