<svg width="1926" height="1927" viewBox="0 0 1926 1927" fill="none" xmlns="http://www.w3.org/2000/svg">
<path d="M454.236 291.321C467.12 272.122 469.54 247.861 460.688 226.522C451.835 205.151 433.008 189.71 410.267 185.267C407.566 184.739 405.485 182.658 404.957 179.892C400.482 157.216 385.047 138.389 363.702 129.537C342.298 120.684 318.102 123.078 298.903 135.995C296.607 137.58 293.619 137.58 291.323 135.995C272.157 123.104 247.928 120.743 226.525 129.537C205.153 138.389 189.712 157.216 185.27 179.957C184.741 182.658 182.66 184.739 179.894 185.267C157.218 189.71 138.391 205.151 129.539 226.522C120.687 247.893 123.107 272.122 135.997 291.321C137.55 293.617 137.55 296.605 135.997 298.901C123.107 318.1 120.68 342.328 129.539 363.699C138.391 385.071 157.218 400.512 179.96 404.954C182.66 405.483 184.741 407.564 185.27 410.33C189.745 433.006 205.18 451.833 226.525 460.685C247.928 469.505 272.098 467.143 291.323 454.227C293.619 452.674 296.607 452.642 298.903 454.227C310.457 461.99 323.85 465.969 337.301 465.969C346.219 465.969 355.163 464.201 363.708 460.685C385.08 451.833 400.521 433.006 404.963 410.265C405.492 407.564 407.573 405.483 410.339 404.954C433.015 400.479 451.842 385.045 460.694 363.699C469.547 342.354 467.126 318.1 454.236 298.901C452.683 296.605 452.683 293.617 454.236 291.321ZM402.661 333.541C404.337 336.027 403.933 338.388 403.313 339.908C402.661 341.461 401.323 343.385 398.407 343.979C370.728 349.354 349.389 370.693 344.014 398.313C343.427 401.295 341.496 402.665 339.943 403.284C338.423 403.937 336.062 404.341 333.576 402.632C321.899 394.771 308.506 390.857 295.152 390.857C281.792 390.857 268.406 394.771 256.729 402.632C254.211 404.374 251.914 403.904 250.362 403.284C248.809 402.665 246.885 401.295 246.291 398.379C240.916 370.699 219.577 349.361 191.956 343.985C188.975 343.398 187.605 341.467 186.985 339.915C186.333 338.395 185.961 336.033 187.638 333.548C203.327 310.187 203.327 280.022 187.638 256.661C185.961 254.176 186.366 251.814 186.985 250.294C187.638 248.741 188.975 246.817 191.891 246.223C219.571 240.848 240.909 219.509 246.285 191.889C246.872 188.907 248.803 187.537 250.355 186.918C251.875 186.298 254.204 185.894 256.722 187.57C280.083 203.292 310.248 203.292 333.609 187.57C336.127 185.894 338.488 186.331 339.976 186.918C341.528 187.57 343.453 188.907 344.046 191.823C349.422 219.503 370.76 240.841 398.381 246.217C401.362 246.804 402.732 248.735 403.352 250.288C404.004 251.808 404.376 254.169 402.7 256.655C386.971 280.048 386.971 310.18 402.661 333.541Z" fill="white"/>
<path d="M1790 1634.67C1788.44 1632.38 1788.44 1629.39 1790 1627.09C1802.89 1607.9 1805.31 1583.67 1796.45 1562.3C1787.6 1540.92 1768.78 1525.48 1746.03 1521.04C1743.33 1520.51 1741.25 1518.43 1740.72 1515.67C1736.25 1492.99 1720.81 1474.16 1699.47 1465.31C1678.1 1456.46 1653.87 1458.85 1634.67 1471.77C1632.4 1473.32 1629.42 1473.39 1627.09 1471.77C1607.89 1458.88 1583.72 1456.48 1562.29 1465.31C1540.92 1474.16 1525.48 1492.99 1521.04 1515.73C1520.51 1518.43 1518.43 1520.51 1515.66 1521.04C1492.99 1525.52 1474.16 1540.95 1465.31 1562.3C1456.45 1583.63 1458.87 1607.9 1471.76 1627.09C1473.32 1629.39 1473.32 1632.38 1471.76 1634.67C1458.87 1653.87 1456.45 1678.1 1465.31 1699.47C1474.16 1720.84 1492.99 1736.29 1515.73 1740.73C1518.43 1741.26 1520.51 1743.34 1521.04 1746.1C1525.51 1768.78 1540.95 1787.61 1562.29 1796.46C1583.66 1805.28 1607.89 1802.89 1627.09 1790C1629.36 1788.45 1632.34 1788.38 1634.67 1790C1646.22 1797.76 1659.62 1801.74 1673.07 1801.74C1681.99 1801.74 1690.93 1799.97 1699.48 1796.46C1720.85 1787.61 1736.29 1768.78 1740.73 1746.04C1741.26 1743.34 1743.34 1741.26 1746.11 1740.73C1768.78 1736.25 1787.61 1720.82 1796.46 1699.47C1805.31 1678.13 1802.89 1653.87 1790 1634.67ZM1738.43 1669.31C1740.11 1671.79 1739.71 1674.15 1739.09 1675.67C1738.43 1677.23 1737.1 1679.15 1734.18 1679.75C1706.5 1685.12 1685.16 1706.46 1679.79 1734.08C1679.2 1737.06 1677.27 1738.43 1675.72 1739.05C1674.16 1739.67 1671.87 1740.11 1669.35 1738.4C1657.67 1730.54 1644.28 1726.62 1630.93 1726.62C1617.57 1726.62 1604.18 1730.54 1592.5 1738.4C1590.02 1740.11 1587.66 1739.7 1586.14 1739.05C1584.58 1738.4 1582.66 1737.06 1582.06 1734.15C1576.69 1706.47 1555.35 1685.13 1527.73 1679.75C1524.75 1679.17 1523.38 1677.23 1522.76 1675.68C1522.11 1674.16 1521.74 1671.8 1523.41 1669.31C1539.1 1645.95 1539.1 1615.79 1523.41 1592.43C1521.74 1589.94 1522.14 1587.58 1522.76 1586.06C1523.41 1584.51 1524.75 1582.58 1527.66 1581.99C1555.34 1576.61 1576.68 1555.28 1582.06 1527.66C1582.65 1524.67 1584.58 1523.3 1586.13 1522.68C1587.65 1522.03 1589.98 1521.63 1592.5 1523.34C1615.86 1539.06 1646.02 1539.06 1669.38 1523.34C1671.9 1521.63 1674.23 1522.1 1675.75 1522.68C1677.3 1523.34 1679.23 1524.67 1679.82 1527.59C1685.2 1555.27 1706.53 1576.61 1734.15 1581.98C1737.14 1582.57 1738.51 1584.5 1739.13 1586.05C1739.78 1587.57 1740.15 1589.94 1738.47 1592.42C1722.74 1615.81 1722.74 1645.95 1738.43 1669.31Z" fill="white"/>
<path d="M1630.89 1335.78C1602.75 1335.78 1574.72 1339.9 1547.32 1348.08L1162.27 963L1547.35 577.921C1605.13 595.098 1665.93 594.139 1724.42 574.973C1812.24 546.113 1881.92 476.434 1910.78 388.588C1932.12 323.666 1930.88 255.788 1907.3 192.321L1890.43 146.969L1683.95 353.452C1671.8 365.599 1652.17 365.599 1640.03 353.452L1572.55 285.979C1560.44 273.865 1560.44 254.171 1572.55 242.056L1779.04 35.5664L1733.69 18.6965C1670.19 -4.91223 1602.35 -6.12561 1537.39 15.2194C1449.57 44.0796 1379.89 113.758 1351.03 201.604C1331.87 260.035 1330.9 320.828 1348.09 378.64L963.006 763.719L577.921 378.679C586.089 351.28 590.225 323.261 590.225 295.112C590.225 132.395 457.829 0 295.106 0C132.389 0 0 132.395 0 295.112C0 457.829 132.395 590.225 295.112 590.225C323.255 590.225 351.28 586.095 378.679 577.921L763.725 963L378.646 1348.08C320.867 1330.9 260.074 1331.84 201.578 1351.03C113.758 1379.89 44.0796 1449.57 15.2194 1537.41C-6.11909 1602.33 -4.87962 1670.21 18.6965 1733.68L35.5664 1779.03L242.05 1572.55C254.197 1560.4 273.826 1560.4 285.973 1572.55L353.452 1640.02C365.567 1652.13 365.567 1671.83 353.452 1683.94L146.969 1890.43L192.321 1907.3C225.715 1919.69 260.322 1925.93 295.112 1925.93C326.425 1925.93 357.862 1920.91 388.647 1910.81C476.467 1881.95 546.145 1812.27 575.005 1724.42C594.171 1665.99 595.137 1605.2 577.954 1547.39L963 1162.28L1348.08 1547.33C1339.91 1574.73 1335.78 1602.75 1335.78 1630.89C1335.78 1793.61 1468.17 1926.01 1630.89 1926.01C1793.6 1926.01 1926 1793.61 1926 1630.89C1926 1468.18 1793.6 1335.78 1630.89 1335.78ZM394.923 506.319L376.22 513.279C349.754 523.13 322.446 528.094 295.112 528.094C166.631 528.094 62.1303 423.594 62.1303 295.112C62.1303 166.631 166.631 62.1303 295.106 62.1303C423.587 62.1303 528.088 166.631 528.088 295.112C528.088 322.446 523.117 349.754 513.24 376.22L506.28 394.923L919.031 807.674L807.674 919.038L394.923 506.319ZM919.07 1118.33L506.319 1531.08L513.279 1549.78C532.198 1600.63 533.131 1652.85 515.98 1705.01C493.272 1774.19 438.415 1829.02 369.266 1851.76C333.882 1863.37 298.563 1866.69 263.551 1861.73L397.441 1727.84C415.022 1710.26 424.748 1686.83 424.748 1661.95C424.748 1637.07 415.028 1613.65 397.441 1596.06L329.968 1528.59C294.773 1493.4 233.387 1493.4 198.192 1528.59L64.2961 1662.48C59.3578 1627.5 62.6522 1592.12 74.2706 1556.8C96.9791 1487.62 151.836 1432.79 220.985 1410.05C273.141 1392.93 325.395 1393.81 376.246 1412.75L394.949 1419.71L807.674 1006.93L1006.92 807.681L1419.67 394.929L1412.71 376.226C1393.8 325.375 1392.86 273.154 1410.01 220.998C1432.72 151.816 1487.58 96.9856 1556.73 74.2511C1592.11 62.6652 1627.46 59.3121 1662.44 64.2765L1528.55 198.166C1510.97 215.747 1501.25 239.173 1501.25 264.054C1501.25 288.935 1510.97 312.361 1528.55 329.942L1596.03 397.415C1631.22 432.609 1692.61 432.609 1727.8 397.415L1861.69 263.525C1866.63 298.505 1863.33 333.888 1851.72 369.207C1829.01 438.389 1774.15 493.22 1705 515.954C1652.85 533.072 1600.62 532.198 1549.74 513.253L1531.04 506.293L1118.31 919.077L919.07 1118.33ZM1630.89 1863.87C1502.41 1863.87 1397.91 1759.37 1397.91 1630.89C1397.91 1603.55 1402.88 1576.25 1412.75 1549.78L1419.71 1531.08L1006.96 1118.33L1118.33 1006.96L1531.08 1419.71L1549.78 1412.75C1576.25 1402.88 1603.55 1397.91 1630.89 1397.91C1759.37 1397.91 1863.87 1502.41 1863.87 1630.89C1863.87 1759.37 1759.36 1863.87 1630.89 1863.87Z" fill="white"/>
</svg>
